<svg height="480pt" viewBox="0 -24 480 480" width="480pt" xmlns="http://www.w3.org/2000/svg"><path d="m456 24h-56v-24h-288v36l32 24v100h16v-20l25.601562-17.601562c25.597657-17.597657 60.796876-12.796876 80.796876 10.402343 25.601562 30.398438 69.601562 36 101.601562 13.597657l16-11.199219v272.800781c0 4.800781-3.199219 8-8 8h-120v16h120c13.601562 0 24-10.398438 24-24v-368h56c4.800781 0 8 3.199219 8 8v264h16v-264c0-13.601562-10.398438-24-24-24zm-97.601562 108.800781c-25.597657 17.597657-60.796876 12.800781-80.796876-10.402343-25.601562-30.398438-69.601562-36-101.601562-13.597657l-16 11.199219v-68l-32-24v-12h256v99.199219zm0 0"/><path d="m144 216h56v16h-56zm0 0"/><path d="m144 304h56v16h-56zm0 0"/><path d="m144 344h56v16h-56zm0 0"/><path d="m144 384h56v16h-56zm0 0"/><path d="m296 56h56v16h-56zm0 0"/><path d="m296 96h56v16h-56zm0 0"/><path d="m296 296h56v16h-56zm0 0"/><path d="m296 336h56v16h-56zm0 0"/><path d="m296 376h56v16h-56zm0 0"/><path d="m312 216c4.800781 0 8 3.199219 8 8v56h16v-56c0-13.601562-10.398438-24-24-24h-57.601562l2.402343-24h-256.800781v37.601562l40.800781 16 21.597657 180.796876c1.601562 12 12 20.800781 24 20.800781h123.203124c12 0 22.398438-9.597657 24-21.597657l19.199219-193.601562zm-296-13.601562v-10.398438h223.199219l-5.597657 59.199219-38.402343 16.800781c-15.199219 6.398438-32.800781 3.199219-44.800781-8.800781l-10.398438-10.398438c-16-16-39.199219-20.800781-60-12.800781l-21.601562 8-3.199219-25.601562zm201.601562 206.402343c0 4-4 7.199219-8 7.199219h-123.203124c-4 0-7.199219-3.199219-8-7.199219l-17.597657-148 24.800781-9.601562c15.199219-5.597657 32-2.398438 43.199219 8.800781l10.398438 10.398438c16 16.800781 40.800781 20.800781 62.402343 12l30.398438-12.796876zm0 0"/></svg>