<?xml version="1.0" encoding="iso-8859-1"?>
<!-- Generator: Adobe Illustrator 19.0.0, SVG Export Plug-In . SVG Version: 6.00 Build 0)  -->
<svg version="1.1" id="Capa_1" xmlns="http://www.w3.org/2000/svg" xmlns:xlink="http://www.w3.org/1999/xlink" x="0px" y="0px"
	 viewBox="0 0 512 512" style="enable-background:new 0 0 512 512;" xml:space="preserve">
<g>
	<g>
		<path d="M264.828,211.889v-44.164c0-4.873-3.955-8.828-8.828-8.828H44.138c-4.873,0-8.828,3.955-8.828,8.828v44.164
			C15.713,212.648,0,228.82,0,248.602V475.26C0,495.519,16.481,512,36.74,512h226.657c20.259,0,36.74-16.481,36.74-36.732V248.602
			C300.138,228.82,284.425,212.639,264.828,211.889z M282.483,475.268c0,10.522-8.563,19.076-19.076,19.076H36.74
			c-10.522,0-19.085-8.563-19.085-19.076V248.602c0-10.522,8.563-19.085,19.085-19.085c8.942,0,16.225-7.283,16.225-16.225v-36.74
			h194.207v36.74c0,8.942,7.283,16.225,16.225,16.225c10.522,0,19.085,8.563,19.085,19.085V475.268z"/>
	</g>
</g>
<g>
	<g>
		<path d="M282.483,70.621H17.655c-4.873,0-8.828,3.955-8.828,8.828v88.276c0,4.873,3.955,8.828,8.828,8.828h264.828
			c4.873,0,8.828-3.955,8.828-8.828V79.448C291.31,74.575,287.356,70.621,282.483,70.621z M273.655,158.897H26.483V88.276h247.172
			V158.897z"/>
	</g>
</g>
<g>
	<g>
		<path d="M114.759,282.483H8.828c-4.873,0-8.828,3.955-8.828,8.828v141.241c0,4.873,3.955,8.828,8.828,8.828h105.931
			c14.601,0,26.483-11.882,26.483-26.483V308.966C141.241,294.365,129.359,282.483,114.759,282.483z M123.586,414.897
			c0,4.864-3.964,8.828-8.828,8.828H17.655V300.138h97.103c4.864,0,8.828,3.964,8.828,8.828V414.897z"/>
	</g>
</g>
<g>
	<g>
		<path d="M291.31,282.483h-52.966c-14.601,0-26.483,11.882-26.483,26.483v105.931c0,14.601,11.882,26.483,26.483,26.483h52.966
			c4.873,0,8.828-3.955,8.828-8.828V291.31C300.138,286.438,296.183,282.483,291.31,282.483z M282.483,423.724h-44.138
			c-4.864,0-8.828-3.964-8.828-8.828V308.966c0-4.864,3.964-8.828,8.828-8.828h44.138V423.724z"/>
	</g>
</g>
<g>
	<g>
		<path d="M79.448,317.793H8.828c-4.873,0-8.828,3.955-8.828,8.828s3.955,8.828,8.828,8.828h70.621c4.873,0,8.828-3.955,8.828-8.828
			S84.321,317.793,79.448,317.793z"/>
	</g>
</g>
<g>
	<g>
		<path d="M61.793,353.103H8.828c-4.873,0-8.828,3.955-8.828,8.828s3.955,8.828,8.828,8.828h52.966c4.873,0,8.828-3.955,8.828-8.828
			S66.666,353.103,61.793,353.103z"/>
	</g>
</g>
<g>
	<g>
		<path d="M44.138,388.414H8.828c-4.873,0-8.828,3.955-8.828,8.828s3.955,8.828,8.828,8.828h35.31c4.873,0,8.828-3.955,8.828-8.828
			S49.011,388.414,44.138,388.414z"/>
	</g>
</g>
<g>
	<g>
		<path d="M473.768,0H232.439c-21.08,0-38.232,17.152-38.232,38.232v41.216c0,4.873,3.955,8.828,8.828,8.828h70.621v70.621H256
			c-4.873,0-8.828,3.955-8.828,8.828v45.568c0,8.969,7.256,16.093,16.516,16.234c10.364,0.141,18.794,8.704,18.794,19.076v226.666
			c0,10.522-8.563,19.076-19.085,19.076c-4.873,0-8.828,3.955-8.828,8.828s3.955,8.828,8.828,8.828h210.37
			c21.08,0,38.232-17.152,38.232-38.232V38.232C512,17.152,494.848,0,473.768,0z M494.345,473.768
			c0,11.343-9.234,20.577-20.577,20.577H294.788c3.39-5.561,5.35-12.094,5.35-19.085V248.594c0-19.668-15.757-35.955-35.31-36.705
			v-35.337h17.655c4.873,0,8.828-3.955,8.828-8.828V79.448c0-4.873-3.955-8.828-8.828-8.828h-70.621V38.232
			c0-11.343,9.234-20.577,20.577-20.577h241.329c11.343,0,20.577,9.234,20.577,20.577V473.768z"/>
	</g>
</g>
<g>
	<g>
		<path d="M61.793,70.621c-4.873,0-8.828,3.955-8.828,8.828v26.483c0,4.873,3.955,8.828,8.828,8.828
			c4.873,0,8.828-3.955,8.828-8.828V79.448C70.621,74.575,66.666,70.621,61.793,70.621z"/>
	</g>
</g>
<g>
	<g>
		<path d="M105.931,70.621c-4.873,0-8.828,3.955-8.828,8.828v26.483c0,4.873,3.955,8.828,8.828,8.828s8.828-3.955,8.828-8.828
			V79.448C114.759,74.575,110.804,70.621,105.931,70.621z"/>
	</g>
</g>
<g>
	<g>
		<path d="M150.069,70.621c-4.873,0-8.828,3.955-8.828,8.828v26.483c0,4.873,3.955,8.828,8.828,8.828s8.828-3.955,8.828-8.828
			V79.448C158.897,74.575,154.942,70.621,150.069,70.621z"/>
	</g>
</g>
<g>
	<g>
		<path d="M194.207,70.621c-4.873,0-8.828,3.955-8.828,8.828v26.483c0,4.873,3.955,8.828,8.828,8.828
			c4.873,0,8.828-3.955,8.828-8.828V79.448C203.034,74.575,199.08,70.621,194.207,70.621z"/>
	</g>
</g>
<g>
	<g>
		<path d="M238.345,70.621c-4.873,0-8.828,3.955-8.828,8.828v26.483c0,4.873,3.955,8.828,8.828,8.828
			c4.873,0,8.828-3.955,8.828-8.828V79.448C247.172,74.575,243.218,70.621,238.345,70.621z"/>
	</g>
</g>
<g>
	<g>
		<path d="M344.276,35.31c-4.873,0-8.828,3.955-8.828,8.828v423.724c0,4.873,3.955,8.828,8.828,8.828s8.828-3.955,8.828-8.828
			V44.138C353.103,39.265,349.149,35.31,344.276,35.31z"/>
	</g>
</g>
<g>
	<g>
		<path d="M423.724,70.621c-19.474,0-35.31,15.837-35.31,35.31s15.837,35.31,35.31,35.31c19.474,0,35.31-15.837,35.31-35.31
			S443.198,70.621,423.724,70.621z M423.724,123.586c-9.737,0-17.655-7.918-17.655-17.655s7.918-17.655,17.655-17.655
			c9.737,0,17.655,7.918,17.655,17.655S433.461,123.586,423.724,123.586z"/>
	</g>
</g>
<g>
	<g>
		<path d="M423.724,167.724c-19.474,0-35.31,15.837-35.31,35.31s15.837,35.31,35.31,35.31c19.474,0,35.31-15.837,35.31-35.31
			S443.198,167.724,423.724,167.724z M423.724,220.69c-9.737,0-17.655-7.918-17.655-17.655s7.918-17.655,17.655-17.655
			c9.737,0,17.655,7.918,17.655,17.655S433.461,220.69,423.724,220.69z"/>
	</g>
</g>
<g>
	<g>
		<path d="M423.724,264.828c-19.474,0-35.31,15.837-35.31,35.31c0,19.474,15.837,35.31,35.31,35.31
			c19.474,0,35.31-15.837,35.31-35.31S443.198,264.828,423.724,264.828z M423.724,317.793c-9.737,0-17.655-7.918-17.655-17.655
			s7.918-17.655,17.655-17.655c9.737,0,17.655,7.918,17.655,17.655S433.461,317.793,423.724,317.793z"/>
	</g>
</g>
<g>
	<g>
		<path d="M423.724,361.931c-19.474,0-35.31,15.837-35.31,35.31c0,19.474,15.837,35.31,35.31,35.31
			c19.474,0,35.31-15.837,35.31-35.31C459.034,377.768,443.198,361.931,423.724,361.931z M423.724,414.897
			c-9.737,0-17.655-7.918-17.655-17.655c0-9.737,7.918-17.655,17.655-17.655c9.737,0,17.655,7.918,17.655,17.655
			C441.379,406.978,433.461,414.897,423.724,414.897z"/>
	</g>
</g>
<g>
</g>
<g>
</g>
<g>
</g>
<g>
</g>
<g>
</g>
<g>
</g>
<g>
</g>
<g>
</g>
<g>
</g>
<g>
</g>
<g>
</g>
<g>
</g>
<g>
</g>
<g>
</g>
<g>
</g>
</svg>
