<svg xmlns="http://www.w3.org/2000/svg" viewBox="0 0 50 50" width="50" height="50">
	<style>
		tspan { white-space:pre }
		.shp0 { fill: #ffffff } 
	</style>
	<path id="Layer" fill-rule="evenodd" class="shp0" d="M1.17 23.47C0.25 23.13 -0.23 22.11 0.11 21.18L5.68 5.88C6.02 4.95 7.04 4.48 7.96 4.81L8.31 4.94C9.05 5.21 9.5 5.93 9.47 6.68L11.13 7.28C11.92 7.57 12.77 7.64 13.6 7.47C22.57 5.06 20.15 5.56 24.47 5.13C24.88 5.08 25.23 5.38 25.27 5.78C25.31 6.18 25.02 6.54 24.62 6.58C20.61 6.99 22.85 6.5 13.96 8.89C13.17 9.11 11.82 9.09 10.63 8.66L9.05 8.08C8.84 8.68 4.35 21 4.08 21.73C9.91 23.86 10.6 23.94 12.06 25.31C13.29 26.45 12.87 26.13 28.57 31.87C29.48 32.2 30.49 31.73 30.82 30.82C31.15 29.91 30.68 28.9 29.78 28.57L25.8 27.11C25.42 26.97 25.22 26.55 25.36 26.17C25.5 25.79 25.92 25.6 26.3 25.73L30.28 27.19C30.72 27.35 31.19 27.33 31.62 27.13C33.03 26.47 32.94 24.42 31.48 23.89L27.5 22.43C27.12 22.29 26.93 21.87 27.07 21.49C27.2 21.11 27.62 20.92 28 21.06L31.98 22.51C32.42 22.67 32.9 22.65 33.32 22.45C34.71 21.8 34.66 19.75 33.18 19.21L29.21 17.75C28.83 17.62 28.63 17.2 28.77 16.82C28.91 16.44 29.33 16.24 29.71 16.38C30.17 16.55 33.51 17.77 33.98 17.94L39.96 20.13C40.87 20.46 41.88 19.98 42.21 19.08C42.54 18.17 42.07 17.16 41.16 16.82C40.59 16.62 29.46 12.55 28.91 12.34C27.8 11.94 27.8 10.36 28.91 9.96L32.98 8.48C33.63 8.26 34.03 7.61 33.96 6.94C33.9 6.46 33.17 5.76 32.74 5.76C32.73 5.76 28.04 6.24 28.03 6.24C27.63 6.28 27.27 5.98 27.23 5.58C27.19 5.18 27.48 4.82 27.88 4.78L32.6 4.3C33.84 4.18 35.27 5.56 35.41 6.77C35.43 6.93 35.43 7.09 35.42 7.25C35.75 7.39 36.02 7.64 36.18 7.99L36.49 8.66C36.84 9.41 36.52 10.31 35.77 10.66L35.6 10.73L37 13.74L37.03 13.76L38.91 12.88C39.67 12.53 40.56 12.85 40.91 13.61L41.22 14.28C41.38 14.62 41.4 14.99 41.31 15.32L41.66 15.45C43.33 16.06 44.19 17.91 43.58 19.58C43.39 20.1 43.08 20.55 42.68 20.9L44.76 25.38C44.93 25.75 44.77 26.19 44.4 26.36C44.04 26.53 43.6 26.37 43.43 26L41.49 21.82L36.44 24.17L37.07 25.52L37.59 25.27C37.96 25.1 38.4 25.26 38.57 25.62C38.74 25.99 38.58 26.43 38.21 26.6L37.68 26.84L38.32 28.22L38.85 27.97C39.22 27.8 39.65 27.96 39.82 28.33C39.99 28.69 39.83 29.13 39.47 29.3L38.94 29.55L39.58 30.92L40.1 30.67C40.47 30.5 40.9 30.66 41.08 31.03C41.25 31.4 41.09 31.83 40.72 32L40.19 32.25L40.83 33.62L41.36 33.38C41.72 33.21 42.16 33.36 42.33 33.73C42.5 34.1 42.34 34.53 41.98 34.7L41.45 34.95L42.02 36.18L47.06 33.82L44.87 29.1C44.7 28.73 44.86 28.3 45.22 28.13C45.59 27.96 46.03 28.12 46.2 28.48L48.7 33.87C48.77 34.02 48.78 34.2 48.75 34.35L47.76 38.53C47.7 38.75 47.55 39.03 47.32 39.26L49.83 44.67C50 45.03 49.85 45.47 49.48 45.64C49.11 45.81 48.68 45.65 48.51 45.28L46 39.87C45.68 39.91 45.36 39.84 45.16 39.74L41.33 37.8C41.19 37.73 41.06 37.6 41 37.46C40.79 37.02 34.5 23.47 34.5 23.45C34.24 23.64 33.95 23.79 33.65 23.9C34.68 25.65 33.86 27.9 31.94 28.58C33.46 31.17 30.92 34.28 28.07 33.24L13.67 27.98C12.69 27.62 11.82 27.08 11.06 26.38C9.87 25.26 9.5 25.27 3.48 23.06C3.01 23.62 2.23 23.86 1.51 23.59L1.17 23.47ZM38.97 14.47L39.85 14.79L39.59 14.23C39.58 14.21 39.55 14.2 39.53 14.21L38.97 14.47ZM34.28 11.35L33.1 11.9L33.33 12.4C33.57 12.49 34.84 12.95 35.06 13.03L34.28 11.35ZM34.92 8.75C34.26 9.72 33.64 9.8 30.75 10.85L30.94 11.25C30.95 11.27 30.97 11.28 30.99 11.27C31.51 11.03 34.67 9.55 35.15 9.33C35.17 9.32 35.18 9.3 35.17 9.28L34.92 8.75ZM45.79 38.41C45.82 38.42 45.86 38.42 45.9 38.4C45.9 38.4 46.08 38.32 46.08 38.32L46.27 38.23C46.3 38.22 46.33 38.19 46.34 38.15L46.98 35.48L43.34 37.18L45.79 38.41ZM35.83 22.84L39.03 21.35L37.94 20.95L35.57 22.05C35.57 22.05 35.52 22.17 35.52 22.18L35.83 22.84ZM1.48 21.69C1.42 21.85 1.51 22.03 1.67 22.09L2.01 22.22C2.17 22.28 2.36 22.19 2.42 22.03C2.51 21.78 7.96 6.81 7.99 6.72C8.05 6.56 7.97 6.37 7.8 6.31L7.46 6.19C7.3 6.13 7.12 6.22 7.06 6.38L1.48 21.69Z" />
</svg>