<svg fill="white" height="512pt" viewBox="0 -44 512.00156 512" width="512pt" xmlns="http://www.w3.org/2000/svg"><path d="m11.996094 196.3125 3.503906 1.28125c7.386719 2.695312 15.402344.304688 20.21875-5.414062 61.761719 22.542968 65.566406 22.484374 77.804688 33.910156 7.75 7.234375 16.726562 12.746094 26.683593 16.378906l147.800781 53.945312c29.199219 10.660157 55.324219-21.257812 39.730469-47.765624 19.648438-6.941407 28.035157-29.945313 17.484375-47.902344 3.113282-1.101563 6.046875-2.652344 8.707032-4.613282.074218.160157 64.625 138.914063 66.734374 143.445313.652344 1.398437 1.929688 2.78125 3.421876 3.535156l39.277343 19.804688c2.078125 1.046875 5.316407 1.730469 8.566407 1.394531l25.773437 55.402344c1.746094 3.753906 6.203125 5.382812 9.960937 3.636718 3.753907-1.746093 5.382813-6.207031 3.636719-9.960937l-25.777343-55.414063c2.34375-2.261718 3.910156-5.167968 4.453124-7.4375l10.152344-42.800781c.363282-1.539062.226563-3.339843-.496094-4.894531l-25.667968-55.171875c-1.746094-3.753906-6.203125-5.382813-9.960938-3.636719-3.753906 1.75-5.382812 6.207032-3.636718 9.964844l22.503906 48.367188-51.773438 24.085937-5.84375-12.5625 5.410156-2.519531c3.757813-1.746094 5.382813-6.207032 3.636719-9.960938-1.746093-3.753906-6.203125-5.382812-9.960937-3.636718l-5.410156 2.519531-6.550782-14.074219 5.414063-2.519531c3.753906-1.746094 5.382812-6.207031 3.636719-9.960938-1.746094-3.753906-6.207032-5.382812-9.964844-3.636719l-5.410156 2.519532-6.546876-14.074219 5.410157-2.515625c3.757812-1.75 5.382812-6.207031 3.636719-9.964844-1.742188-3.753906-6.203126-5.382812-9.960938-3.636718l-5.410156 2.519531-6.546875-14.074219 5.410156-2.519531c3.753906-1.746094 5.382813-6.207031 3.636719-9.960938-1.75-3.753906-6.207032-5.382812-9.964844-3.636719l-5.410156 2.519532-6.414063-13.789063 51.769531-24.085937 19.9375 42.851562c1.746094 3.753906 6.203126 5.382813 9.960938 3.636719 3.753906-1.746094 5.382812-6.207031 3.636719-9.960937l-21.351563-45.898438c4.136719-3.613281 7.328125-8.226562 9.261719-13.527344 6.253906-17.132812-2.546875-36.058594-19.683594-42.308594l-3.621093-1.324218c.957031-3.421875.757812-7.183594-.855469-10.648438l-3.195313-6.875c-3.59375-7.726562-12.757812-11.074218-20.492187-7.476562l-19.324219 8.988281-.324219-.117187-14.335937-30.816407 1.671875-.777343c7.730469-3.597657 11.074219-12.761719 7.480469-20.492188l-3.199219-6.871094c-1.632813-3.511718-4.460938-6.121094-7.789063-7.582031.070313-1.597656.023438-3.21875-.164062-4.855469-1.417969-12.40625-16.050782-26.507812-28.761719-25.269531l-48.429687 4.875c-4.121094.414063-7.125 4.09375-6.710938 8.214844.414062 4.117187 4.074219 7.117187 8.214844 6.707031.121094-.011719 48.179687-4.855469 48.296875-4.855469 4.453125 0 11.933593 7.152344 12.492187 12.03125.785156 6.882813-3.300781 13.492188-10.003906 15.828125l-41.75 15.121094c-11.398438 4.125-11.414062 20.25-.03125 24.40625 5.660156 2.0625 119.894531 43.757812 125.691406 45.875 9.324219 3.402344 14.140625 13.753906 10.738282 23.078125-3.378907 9.25-13.6875 14.160156-23.078126 10.738281l-61.351562-22.394531c-4.828125-1.761719-39.042969-14.25-43.804688-15.988281-3.890624-1.417969-8.195312.585937-9.613281 4.476562-1.421875 3.886719.582031 8.191406 4.472657 9.613282l40.8125 14.898437c15.148437 5.527344 15.714843 26.578125 1.421874 33.226563-4.359374 2.027343-9.246093 2.234374-13.765624.585937l-40.8125-14.894531c-3.890626-1.421875-8.195313.582031-9.613282 4.472656-1.421875 3.890625.582032 8.195312 4.472656 9.613281l40.8125 14.898438c15.019532 5.480469 15.90625 26.488281 1.421876 33.226562-4.359376 2.027344-9.25 2.238281-13.765626.589844l-40.8125-14.898437c-3.890624-1.417969-8.195312.582031-9.613281 4.472656-1.421875 3.890625.582031 8.195312 4.472657 9.617187l40.8125 14.894531c9.324218 3.402344 14.140624 13.757813 10.738281 23.078126-3.402344 9.328124-13.757813 14.144531-23.082031 10.738281-161.054688-58.78125-156.789063-55.4375-169.386719-67.199219-15.007813-14.015625-22.035157-14.820312-81.851563-36.652344 2.703125-7.410156 48.757813-133.597656 50.992188-139.710937l16.117187 5.882812c12.285157 4.484375 26.105469 4.617188 34.167969 2.433594 91.265625-24.515625 68.300781-19.535156 109.410156-23.675781 4.121094-.414063 7.125-4.089844 6.707032-8.210938-.414063-4.121094-4.082032-7.125-8.210938-6.710937-44.382812 4.472656-19.5-.679688-111.558594 24.050781-8.480468 1.671875-17.25.988281-25.375-1.976562l-16.964844-6.1875c.269532-7.6875-4.367187-15.027344-11.972656-17.804688l-3.503906-1.277344c-9.453125-3.453125-19.957031 1.433594-23.402344 10.886719l-57.207031 156.738281c-3.453125 9.453125 1.429687 19.953125 10.886719 23.402344zm393.589844-94.84375c.234374-.101562.472656.003906.566406.207031l2.664062 5.726563-8.957031-3.269532zm-45.898438-11.996094c-2.253906-.824218-15.292969-5.582031-17.707031-6.464844l-2.386719-5.132812 12.082031-5.621094zm1.140625-38.488281c.097656.214844.007813.46875-.207031.566406-4.875 2.269531-37.332032 17.367188-42.625 19.832031-.21875.101563-.46875.003907-.566406-.207031l-1.894532-4.074219c29.582032-10.714843 36.011719-11.542968 42.789063-21.5zm83.824219 285.703125 37.3125-17.355469-6.492188 27.355469c-.152344.351562-.433594.640625-.785156.804688l-1.902344.882812s-1.890625.882812-1.902344.886719c-.351562.164062-.753906.191406-1.125.082031zm-80.25-153.59375c.027344-.0625.527344-1.253906.542968-1.285156l24.292969-11.300782 11.203125 4.089844-32.875 15.292969zm-349.207032-5.039062 57.207032-156.742188c.605468-1.652344 2.496094-2.550781 4.171875-1.9375l3.503906 1.277344c1.65625.605468 2.546875 2.515625 1.941406 4.171875-.3125.859375-56.273437 154.179687-57.207031 156.738281-.605469 1.65625-2.515625 2.546875-4.175781 1.941406l-3.5-1.277344c-1.664063-.609374-2.550781-2.507812-1.941407-4.171874zm0 0"/></svg>