<svg id="Capa_1" enable-background="new 0 0 512 512" height="512" viewBox="0 0 512 512" width="512" xmlns="http://www.w3.org/2000/svg"><g><path d="m217.5 165c0-11.288-2.107-22.088-5.92-32.052 24.634-4.316 43.42-25.847 43.42-51.698 0-28.948-23.551-52.5-52.5-52.5-9.21 0-17.868 2.391-25.4 6.574-7.133-20.536-26.666-35.324-49.6-35.324s-42.467 14.788-49.6 35.324c-7.532-4.183-16.191-6.574-25.4-6.574-28.949 0-52.5 23.552-52.5 52.5 0 25.85 18.784 47.381 43.417 51.697-3.812 9.964-5.917 20.765-5.917 32.053 0 65 67.74 65 90 65s90 0 90-65zm-15-106.25c12.407 0 22.5 10.094 22.5 22.5s-10.093 22.5-22.5 22.5-22.5-10.094-22.5-22.5 10.093-22.5 22.5-22.5zm-75-28.75c12.407 0 22.5 10.094 22.5 22.5s-10.093 22.5-22.5 22.5-22.5-10.094-22.5-22.5 10.093-22.5 22.5-22.5zm-75 73.75c-12.407 0-22.5-10.094-22.5-22.5s10.093-22.5 22.5-22.5 22.5 10.094 22.5 22.5-10.093 22.5-22.5 22.5zm75 96.25c-49.963 0-60-13.392-60-35 0-33.084 26.916-60 60-60s60 26.916 60 60c0 21.608-10.037 35-60 35z"/><path d="m489.509 56.034-86.603-50c-21.489-12.407-49.064-5.018-61.471 16.472s-5.018 49.064 16.471 61.471l4.33 2.5-25 43.301-38.971-22.5c-7.174-4.142-16.348-1.684-20.49 5.49s-1.684 16.348 5.49 20.49l12.99 7.5-127.5 220.837c-12.407 21.489-5.018 49.064 16.471 61.471l12.989 7.499-34.024 58.932c-4.142 7.174-1.684 16.348 5.49 20.49s16.348 1.684 20.49-5.49l34.024-58.932 12.991 7.5c21.489 12.407 49.064 5.018 61.471-16.471l127.5-220.837 12.99 7.5c7.174 4.142 16.348 1.684 20.49-5.49s1.684-16.348-5.49-20.49l-38.971-22.5 25-43.301 4.33 2.5c21.489 12.407 49.064 5.018 61.471-16.471s5.021-49.065-16.468-61.471zm-216.831 365.561c-4.136 7.163-13.327 9.626-20.49 5.49l-51.962-30c-7.163-4.136-9.626-13.327-5.49-20.49l7.5-12.99 12.99 7.5c7.174 4.142 16.348 1.684 20.49-5.49s1.684-16.348-5.49-20.49l-12.99-7.5 15-25.981 30.311 17.5c7.174 4.142 16.348 1.684 20.49-5.49s1.684-16.348-5.49-20.49l-30.311-17.5 15-25.981 77.942 45zm82.5-142.894-77.942-45 15-25.981 30.311 17.5c7.174 4.142 16.348 1.684 20.49-5.49s1.684-16.348-5.49-20.49l-30.311-17.5 15-25.981 77.942 45zm34.02-118.923-25.981-15 25-43.301 25.981 15zm90.801-57.273c-4.136 7.163-13.327 9.626-20.49 5.49l-86.603-50c-7.163-4.136-9.626-13.327-5.49-20.49s13.328-9.627 20.491-5.491l86.603 50c7.162 4.136 9.625 13.328 5.489 20.491z"/></g></svg>